<?xml version="1.0" standalone="no"?>
<!DOCTYPE svg PUBLIC "-//W3C//DTD SVG 20010904//EN"
 "http://www.w3.org/TR/2001/REC-SVG-20010904/DTD/svg10.dtd">
<svg version="1.0" xmlns="http://www.w3.org/2000/svg"
 width="243.000000pt" height="207.000000pt" viewBox="0 0 243.000000 207.000000"
 preserveAspectRatio="xMidYMid meet">
<metadata>
Created by potrace 1.16, written by Peter Selinger 2001-2019
</metadata>
<g transform="translate(0.000000,207.000000) scale(0.100000,-0.100000)"
fill="#000000" stroke="none">
<path d="M880 2005 c-160 -29 -289 -94 -404 -204 -110 -105 -183 -230 -227
-391 -7 -25 -13 -102 -13 -175 0 -154 15 -219 79 -350 77 -157 186 -266 350
-351 254 -130 571 -106 806 61 l46 33 284 -284 c311 -311 324 -320 373 -271
53 53 51 56 -259 367 -157 157 -285 289 -285 293 0 4 16 30 35 58 274 398 116
958 -325 1157 -134 60 -319 83 -460 57z m330 -164 c194 -62 349 -217 416 -417
20 -61 24 -92 24 -193 0 -105 -3 -129 -28 -198 -15 -43 -40 -100 -55 -125 -66
-112 -198 -221 -333 -275 -64 -26 -79 -28 -219 -27 -140 0 -155 2 -218 27
-247 99 -401 306 -414 558 -7 127 9 215 57 314 85 175 241 303 425 349 85 22
259 15 345 -13z"/>
</g>
</svg>
