<?xml version="1.0" standalone="no"?>
<!DOCTYPE svg PUBLIC "-//W3C//DTD SVG 20010904//EN"
 "http://www.w3.org/TR/2001/REC-SVG-20010904/DTD/svg10.dtd">
<svg version="1.0" xmlns="http://www.w3.org/2000/svg"
 width="820.000000pt" height="512.000000pt" viewBox="0 0 820.000000 512.000000"
 preserveAspectRatio="xMidYMid meet">
<metadata>
Created by potrace 1.16, written by Peter Selinger 2001-2019
</metadata>
<g transform="translate(0.000000,512.000000) scale(0.100000,-0.100000)"
fill="#000000" stroke="none">
<path d="M3928 4315 c-370 -62 -688 -327 -813 -679 -96 -267 -84 -539 35 -801
102 -226 329 -439 565 -530 151 -58 212 -69 385 -69 173 0 234 11 385 69 236
91 463 304 565 530 119 262 131 534 35 801 -169 473 -662 762 -1157 679z"/>
<path d="M3145 2373 c-443 -274 -749 -708 -850 -1209 -30 -147 -31 -177 -5
-219 43 -70 -99 -65 1810 -65 1909 0 1767 -5 1810 65 26 42 25 72 -5 219 -106
524 -446 988 -912 1246 l-42 23 -55 -51 c-302 -276 -756 -372 -1160 -245 -150
47 -374 178 -455 267 -14 14 -29 26 -35 25 -6 0 -51 -25 -101 -56z"/>
</g>
</svg>
